<svg xmlns="http://www.w3.org/2000/svg" width="410" height="404" viewBox="0 0 410 404" fill="none">
  <g clip-path="url(#clip0_17_69)">
    <path d="M399.641 59.5246L215.643 388.545C211.844 395.388 202.321 395.374 198.539 388.52L10.5817 59.5093C6.36701 52.0131 12.6802 43.1843 21.0281 44.7586L205.223 79.4416C206.398 79.6648 207.601 79.6648 208.776 79.4416L389.119 45.0213C397.432 43.388 403.786 52.1141 399.641 59.5246Z" fill="url(#paint0_linear_17_69)"/>
    <path d="M292.965 1.5744L156.801 28.2552C154.563 28.6937 152.855 30.5315 152.634 32.8006L139.71 166.79C139.319 170.792 143.247 173.767 147.029 172.468L188.42 158.4C192.552 156.984 196.864 159.951 196.491 164.294L190.733 231.744C190.333 236.534 195.323 239.829 199.58 237.73L225.57 224.968C229.833 222.866 234.83 226.168 234.421 230.963L226.312 327.551C225.834 333.275 233.366 335.999 236.422 331.162L238.5 327.863L353.015 109.498C355.272 105.193 351.312 100.237 346.609 101.152L303.382 109.498C299.093 110.323 295.463 106.641 296.333 102.349L310.093 32.4806C310.964 28.187 307.327 24.5019 303.036 25.3425Z" fill="url(#paint1_linear_17_69)"/>
  </g>
  <defs>
    <linearGradient id="paint0_linear_17_69" x1="6.00017" y1="32.9999" x2="235" y2="344" gradientUnits="userSpaceOnUse">
      <stop stop-color="#41D1FF"/>
      <stop offset="1" stop-color="#BD34FE"/>
    </linearGradient>
    <linearGradient id="paint1_linear_17_69" x1="194.651" y1="8.81818" x2="236.076" y2="292.989" gradientUnits="userSpaceOnUse">
      <stop stop-color="#FFEA83"/>
      <stop offset="0.0833333" stop-color="#FFDD35"/>
      <stop offset="1" stop-color="#FFA800"/>
    </linearGradient>
    <clipPath id="clip0_17_69">
      <rect width="410" height="404" fill="white"/>
    </clipPath>
  </defs>
</svg>
